<?xml version="1.0" standalone="no"?><!DOCTYPE svg PUBLIC "-//W3C//DTD SVG 1.1//EN" "http://www.w3.org/Graphics/SVG/1.1/DTD/svg11.dtd"><svg width="100%" height="100%" viewBox="0 0 135 110" version="1.1" xmlns="http://www.w3.org/2000/svg" xmlns:xlink="http://www.w3.org/1999/xlink" xml:space="preserve" style="fill-rule:evenodd;clip-rule:evenodd;stroke-linejoin:round;stroke-miterlimit:1.41421;"><path d="M25.229,58.867l0,50.458l-25.229,-50.458l16.819,-33.638l50.458,-25.229l50.458,25.229l16.819,33.638l-25.229,50.458l0,-50.458l-8.41,0l-8.409,16.819c0,0 -6.934,3.998 -20.68,4.757l-4.549,24.226l-4.549,-24.221c-14.059,-0.745 -20.68,-4.762 -20.68,-4.762l-8.41,-16.819l-8.409,0ZM33.638,25.229l67.277,0c0,0 -8.217,-8.413 -33.638,-8.41c-25.421,0.004 -33.639,8.41 -33.639,8.41Z" style="fill:#fff;"/></svg>