<?xml version="1.0" standalone="no"?><!DOCTYPE svg PUBLIC "-//W3C//DTD SVG 1.1//EN" "http://www.w3.org/Graphics/SVG/1.1/DTD/svg11.dtd"><svg width="100%" height="100%" viewBox="0 0 520 520" version="1.1" xmlns="http://www.w3.org/2000/svg" xmlns:xlink="http://www.w3.org/1999/xlink" xml:space="preserve" style="fill-rule:evenodd;clip-rule:evenodd;stroke-linejoin:round;stroke-miterlimit:1.41421;"><path d="M204.152,519.326c-60.314,0 -132.202,0.153 -173.663,-51.75c-34.446,-43.122 -30.337,-100.422 -30.337,-152.25l0,-82.5c0,-19.383 -1.116,-38.831 3.866,-57.75c4.745,-18.015 12.804,-34.852 24.383,-49.5c12.013,-15.197 27.072,-28.321 40.751,-42l34.5,-34.5c9.942,-9.941 19.677,-19.936 31.5,-27.691c18.132,-11.893 37.947,-17.909 59.25,-20.741c9.267,-1.231 19.156,-0.318 28.5,-0.318l93,0c60.296,0 132.779,-0.194 173.682,52.5c33.467,43.115 29.568,99.364 29.568,150.75l0,79.5c0,12.838 1.089,26.221 -0.127,39c-1.869,19.641 -7.39,38.241 -17.019,55.5c-8.71,15.61 -21.335,27.981 -33.854,40.5l-39.75,39.75c-12.358,12.358 -24.219,25.572 -38.25,36.079c-17.69,13.247 -38.85,21.662 -60.75,24.456c-11.428,1.459 -22.993,0.965 -34.5,0.965l-90.75,0ZM147,102l0,253.5c0,18.001 0.644,38.06 12.976,52.5c14.745,17.267 39.592,18 60.524,18c7.543,0 14.998,0.092 22.5,-0.622c7.497,-0.714 15.049,-0.244 22.5,-1.628l0,-49.5c-9.136,0.076 -18.622,0.942 -27.75,1.568c-6.856,0.468 -15.181,1.188 -20.997,-3.363c-11.567,-9.052 -8.253,-29.503 -8.253,-42.455l0,-114l57,0l0,-50.25l-26.25,0c-7.132,0 -13.978,0.319 -20.25,-3.727c-6.634,-4.278 -9.001,-11.359 -10.066,-18.773c-2.256,-15.718 -0.434,-32.869 -0.434,-48.75c-20.742,2.584 -40.748,5.108 -61.5,7.5ZM352.5,253.5c0,-4.4 -1.26,-11.143 1.202,-14.997c3.005,-4.703 8.948,-7.891 13.798,-10.317c12.685,-6.343 27.812,-9.818 42,-9.936l0,-58.5c-18.178,0 -38.033,4.364 -53.25,14.64c-4.784,3.231 -8.689,7.549 -12.75,11.61c-0.889,-6.887 -3.936,-13.34 -4.5,-20.25l-48,0l0,258l61.5,0l0,-170.25Z" style="fill:#fff;"/></svg>