<?xml version="1.0" standalone="no"?><!DOCTYPE svg PUBLIC "-//W3C//DTD SVG 1.1//EN" "http://www.w3.org/Graphics/SVG/1.1/DTD/svg11.dtd"><svg width="100%" height="100%" viewBox="0 0 99 131" version="1.1" xmlns="http://www.w3.org/2000/svg" xmlns:xlink="http://www.w3.org/1999/xlink" xml:space="preserve" style="fill-rule:evenodd;clip-rule:evenodd;stroke-linejoin:round;stroke-miterlimit:1.41421;"><path id="Layer1" d="M43.565,65.671c0.135,-4.372 0.218,-8.646 0.242,-12.81c-4.298,0.097 -8.596,0.297 -12.894,0.599c2.031,5.818 6.743,10.383 12.652,12.211l0,0ZM55.167,65.649c5.896,-1.85 10.59,-6.425 12.602,-12.247c-4.255,-0.29 -8.51,-0.476 -12.765,-0.559c-0.004,4.194 0.053,8.465 0.163,12.806l0,0ZM55.174,41.455c4.234,-0.085 8.456,-0.277 12.666,-0.576c-1.901,-5.708 -6.37,-10.248 -12.034,-12.243c-0.294,4.166 -0.502,8.443 -0.632,12.819l0,0ZM43.715,41.426c-0.102,-4.456 -0.287,-8.759 -0.562,-12.892c-5.774,1.929 -10.349,6.487 -12.3,12.251c4.3,0.32 8.587,0.534 12.862,0.641ZM55.374,72.254c0.687,18.559 2.273,38.273 4.281,58.529l-20.65,0c1.986,-20.53 3.564,-40.296 4.321,-58.52c-9.169,-2.177 -16.459,-9.23 -18.975,-18.263c-8.117,0.765 -16.234,1.889 -24.351,3.361l0,-20.65c8.147,1.536 16.251,2.706 24.311,3.506c2.416,-8.871 9.428,-15.856 18.315,-18.231c-0.775,-8.139 -1.956,-15.516 -3.621,-21.986l20.65,0c-1.476,6.877 -2.559,14.259 -3.306,22.072c8.775,2.465 15.671,9.436 18.03,18.254c8.142,-0.797 16.236,-2.001 24.282,-3.615l0,20.65c-8.11,-1.533 -16.221,-2.672 -24.332,-3.43c-2.495,9.053 -9.781,16.129 -18.955,18.323l0,0Z" style="fill:#fff;"/></svg>